<?xml version="1.0" encoding="utf-8"?>
<!-- Generator: Adobe Illustrator 21.1.0, SVG Export Plug-In . SVG Version: 6.00 Build 0)  -->
<svg version="1.1" id="Icons" xmlns="http://www.w3.org/2000/svg" xmlns:xlink="http://www.w3.org/1999/xlink" x="0px" y="0px"
	 viewBox="0 0 48 48" style="enable-background:new 0 0 48 48;" xml:space="preserve">
<style type="text/css">
	.st0{fill:#FFE500;}
	.st1{fill:#EBCB00;}
	.st2{fill:#FFF48C;}
	.st3{opacity:0.15;fill:#45413C;}
	.st4{fill:none;stroke:#45413C;stroke-linecap:round;stroke-linejoin:round;stroke-miterlimit:10;}
	.st5{fill:#FFAA54;}
	.st6{fill:#FFB0CA;stroke:#45413C;stroke-linecap:round;stroke-linejoin:round;stroke-miterlimit:10;}
	.st7{fill:#FF87AF;stroke:#45413C;stroke-linecap:round;stroke-linejoin:round;stroke-miterlimit:10;}
	.st8{fill:#00B8F0;}
	.st9{fill:#4ACFFF;}
	.st10{fill:#FFFFFF;stroke:#45413C;stroke-linecap:round;stroke-linejoin:round;stroke-miterlimit:10;}
	.st11{fill:#45413C;stroke:#45413C;stroke-linecap:round;stroke-linejoin:round;stroke-miterlimit:10;}
	.st12{fill:#009FD9;}
	.st13{fill:none;stroke:#45413C;stroke-linecap:round;stroke-miterlimit:10;}
	.st14{fill:#FFFFFF;stroke:#45413C;stroke-linejoin:round;stroke-miterlimit:10;}
	.st15{fill:#FF6242;}
	.st16{fill:#FF866E;}
	.st17{fill:#656769;}
	.st18{fill:#87898C;}
	.st19{fill:#4AEFF7;stroke:#45413C;stroke-linecap:round;stroke-linejoin:round;stroke-miterlimit:10;}
	.st20{fill:none;stroke:#48CF3E;stroke-linecap:round;stroke-linejoin:round;stroke-miterlimit:10;}
	.st21{fill:none;stroke:#FF4064;stroke-linecap:round;stroke-linejoin:round;stroke-miterlimit:10;}
	.st22{fill:none;stroke:#FFB700;stroke-linecap:round;stroke-linejoin:round;stroke-miterlimit:10;}
	.st23{fill:none;stroke:#00AED9;stroke-linecap:round;stroke-linejoin:round;stroke-miterlimit:10;}
	.st24{fill:#FFFACF;}
	.st25{fill:#45413C;}
	.st26{fill:#FF866E;stroke:#45413C;stroke-linecap:round;stroke-linejoin:round;stroke-miterlimit:10;}
	.st27{fill:#DABFF5;stroke:#45413C;stroke-linejoin:round;stroke-miterlimit:10;}
	.st28{fill:#EDDBFF;}
	.st29{fill:none;stroke:#45413C;stroke-linejoin:round;stroke-miterlimit:10;}
	.st30{fill:#6DD627;}
	.st31{fill:#46B000;}
	.st32{fill:#C8FFA1;}
	.st33{fill:url(#XMLID_91_);}
	.st34{fill:url(#XMLID_92_);}
	.st35{fill:#F0F0F0;stroke:#45413C;stroke-linecap:round;stroke-linejoin:round;stroke-miterlimit:10;}
	.st36{fill:#EBCB00;stroke:#45413C;stroke-linecap:round;stroke-linejoin:round;stroke-miterlimit:10;}
	.st37{fill:#BDBEC0;stroke:#45413C;stroke-linecap:round;stroke-linejoin:round;stroke-miterlimit:10;}
	.st38{fill:#F0F0F0;}
	.st39{fill:#FFFFFF;}
	.st40{fill:url(#XMLID_93_);}
	.st41{fill:url(#XMLID_94_);}
	.st42{fill:#FFE500;stroke:#45413C;stroke-linecap:round;stroke-linejoin:round;stroke-miterlimit:10;}
	.st43{fill:#E04122;}
	.st44{fill:#8CFFE4;stroke:#45413C;stroke-linecap:round;stroke-linejoin:round;stroke-miterlimit:10;}
	.st45{fill:#E5FFF9;}
	.st46{fill:#E0E0E0;}
	.st47{fill:#9CEB60;}
	.st48{fill:#6DD627;stroke:#45413C;stroke-linecap:round;stroke-linejoin:round;stroke-miterlimit:10;}
	.st49{fill:#E8F4FA;}
	.st50{fill:#F0D5A8;}
	.st51{fill:#DEBB7E;}
	.st52{fill:#B89558;}
	.st53{fill:#00B8F0;stroke:#45413C;stroke-linecap:round;stroke-linejoin:round;stroke-miterlimit:10;}
	.st54{fill:#FFFCE5;}
	.st55{fill:#FF87AF;}
	.st56{fill:#4ACFFF;stroke:#45413C;stroke-linecap:round;stroke-linejoin:round;stroke-miterlimit:10;}
	.st57{fill:#E5F8FF;}
	.st58{fill:none;stroke:#45413C;stroke-miterlimit:10;}
	.st59{fill:none;stroke:#FF6242;stroke-linecap:round;stroke-linejoin:round;stroke-miterlimit:10;}
	.st60{fill:#BDBEC0;}
	.st61{fill:#B89558;stroke:#45413C;stroke-linecap:round;stroke-linejoin:round;stroke-miterlimit:10;}
	.st62{fill:#FF6242;stroke:#45413C;stroke-linecap:round;stroke-linejoin:round;stroke-miterlimit:10;}
	.st63{fill:#525252;stroke:#45413C;stroke-linecap:round;stroke-linejoin:round;stroke-miterlimit:10;}
	.st64{fill:#525252;}
	.st65{fill:#00DBA8;}
	.st66{fill:#00AD85;}
	.st67{fill:#BF8DF2;}
	.st68{fill:#DABFF5;}
	.st69{fill:#00F5BC;}
	.st70{fill:#DAEDF7;}
	.st71{fill:#C0DCEB;}
	.st72{fill:#ADC4D9;}
	.st73{fill:#ADC4D9;stroke:#45413C;stroke-linecap:round;stroke-linejoin:round;stroke-miterlimit:10;}
	.st74{fill:#00DFEB;stroke:#45413C;stroke-linecap:round;stroke-linejoin:round;stroke-miterlimit:10;}
	.st75{fill:#627B8C;stroke:#45413C;stroke-linecap:round;stroke-linejoin:round;stroke-miterlimit:10;}
	.st76{fill:#8CA4B8;}
	.st77{fill:#00DBA8;stroke:#45413C;stroke-linecap:round;stroke-linejoin:round;stroke-miterlimit:10;}
	.st78{fill:#FF8A14;}
	.st79{fill:#BF8256;}
	.st80{fill:#DEA47A;}
	.st81{fill:#915E3A;}
	.st82{fill:#FFA694;}
	.st83{fill:#E5FEFF;stroke:#45413C;stroke-linecap:round;stroke-linejoin:round;stroke-miterlimit:10;}
	.st84{fill:#803EC2;stroke:#45413C;stroke-linecap:round;stroke-linejoin:round;stroke-miterlimit:10;}
	.st85{fill:#9F5AE5;}
	.st86{fill:#803EC2;}
</style>
<g id="XMLID_710_">
	<circle id="XMLID_1483_" class="st0" cx="24" cy="21.5" r="20"/>
	<path id="XMLID_1480_" class="st1" d="M24,1.5c-11,0-20,9-20,20s9,20,20,20s20-9,20-20S35,1.5,24,1.5z M24,38.5
		c-10.1,0-18.2-8.2-18.2-18.2C5.8,10.2,13.9,2,24,2s18.2,8.2,18.2,18.2C42.2,30.3,34.1,38.5,24,38.5z"/>
	<ellipse id="XMLID_1479_" class="st2" cx="24" cy="5.5" rx="6" ry="1.5"/>
	<ellipse id="XMLID_1478_" class="st3" cx="24" cy="45.5" rx="16" ry="1.5"/>
	<circle id="XMLID_1477_" class="st4" cx="24" cy="21.5" r="20"/>
	<ellipse id="XMLID_1476_" class="st5" cx="36" cy="26.5" rx="2.5" ry="1.5"/>
	<ellipse id="XMLID_1475_" class="st5" cx="12" cy="26.5" rx="2.5" ry="1.5"/>
	<path id="XMLID_1474_" class="st4" d="M36.3,18l-3.2,1.6c-0.7,0.4-0.7,1.4,0,1.8l3.2,1.6"/>
	<path id="XMLID_1473_" class="st4" d="M11.7,18l3.2,1.6c0.7,0.4,0.7,1.4,0,1.8L11.7,23"/>
	<g id="XMLID_1469_">
		<path id="XMLID_1472_" class="st8" d="M38.8,44c-3.9-0.9-0.2-5.7-1.1-8.3C42.2,37.5,42.7,44.9,38.8,44z"/>
		<path id="XMLID_1471_" class="st9" d="M37.7,35.7c0,0.1,0,0.1,0.1,0.2c3.2,2.5,3.2,8.2-0.1,7.5c0.3,0.3,0.7,0.5,1.2,0.6
			C42.7,44.9,42.2,37.5,37.7,35.7z"/>
		<path id="XMLID_1470_" class="st4" d="M38.8,44c-3.9-0.9-0.2-5.7-1.1-8.3C42.2,37.5,42.7,44.9,38.8,44z"/>
	</g>
	<g id="XMLID_1465_">
		<path id="XMLID_1468_" class="st8" d="M34.1,40.4c-2.8,0.1-1.2-3.8-2.4-5.4C35.2,35.4,36.9,40.3,34.1,40.4z"/>
		<path id="XMLID_1467_" class="st9" d="M31.7,35c0,0,0.1,0.1,0.1,0.1c2.6,1.1,3.8,4.9,1.4,5.1c0.2,0.1,0.5,0.2,0.9,0.2
			C36.9,40.3,35.2,35.4,31.7,35z"/>
		<path id="XMLID_1466_" class="st4" d="M34.1,40.4c-2.8,0.1-1.2-3.8-2.4-5.4C35.2,35.4,36.9,40.3,34.1,40.4z"/>
	</g>
	<path id="XMLID_1464_" class="st4" d="M32.5,33.4l-1.8-1.8c-0.4-0.4-1-0.4-1.4,0l-1.6,1.6c-0.4,0.4-1,0.4-1.4,0l-1.6-1.6
		c-0.4-0.4-1-0.4-1.4,0l-1.6,1.6c-0.4,0.4-1,0.4-1.4,0l-1.6-1.6c-0.4-0.4-1-0.4-1.4,0l-1.8,1.8"/>
	<g id="XMLID_1457_">
		<path id="XMLID_1463_" class="st49" d="M22.4,27.1c0-1.9-2-3.1-3.7-2.2c-4.8,2.5-7.2,6.9-13.7,10.6c-0.8,0.5-1.2,1.4-0.9,2.3
			c0.3,0.9,1.1,1.5,2.1,1.4c0.4,0,0.8,0.1,1,0.4c0.5,0.5,0.4,1,0.3,1.6c-0.2,0.8,0.2,1.6,0.9,2.1c0.7,0.4,1.6,0.4,2.3-0.1
			c0.4-0.3,1-0.4,1.5-0.1c0.5,0.3,0.8,0.7,0.7,1.3c0,0.8,0.4,1.5,1.1,1.8c0.7,0.3,1.5,0.2,2.1-0.3C21.5,41,22.5,31.6,22.4,27.1z"/>
		<g id="XMLID_1461_">
			<path id="XMLID_1462_" class="st39" d="M4.6,38.7c0.1-0.5,0.5-0.9,0.9-1.1c6.5-3.7,8.9-8.1,13.7-10.6c1.2-0.6,2.4-0.2,3.1,0.7
				c0-0.2,0-0.4,0-0.6c0-1.9-2-3.1-3.7-2.2c-4.8,2.5-7.2,6.9-13.7,10.6c-0.8,0.5-1.2,1.4-0.9,2.3C4.2,38.1,4.4,38.4,4.6,38.7z"/>
		</g>
		<path id="XMLID_1460_" class="st29" d="M22.4,27.1c0-1.9-2-3.1-3.7-2.2c-4.8,2.5-7.2,6.9-13.7,10.6c-0.8,0.5-1.2,1.4-0.9,2.3
			c0.3,0.9,1.1,1.5,2.1,1.4c0.4,0,0.8,0.1,1,0.4c0.3,0.3,0.4,0.7,0.3,1c0,0.2-0.1,0.4-0.1,0.6c-0.2,0.8,0.2,1.6,0.9,2.1
			c0.7,0.4,1.6,0.4,2.3-0.1c0.4-0.3,1-0.4,1.5-0.1c0.5,0.3,0.8,0.7,0.7,1.3c0,0.8,0.4,1.5,1.1,1.8c0.7,0.3,1.5,0.2,2.1-0.3
			C21.5,41,22.5,31.6,22.4,27.1z"/>
		<path id="XMLID_1459_" class="st4" d="M7.1,39.6c0,0,5.5-3,8.4-8"/>
		<path id="XMLID_1458_" class="st4" d="M12,43.1c0,0,5.1-5.2,6.1-9.7"/>
	</g>
</g>
</svg>
