<?xml version="1.0" encoding="utf-8"?>
<!-- Generator: Adobe Illustrator 21.1.0, SVG Export Plug-In . SVG Version: 6.00 Build 0)  -->
<svg version="1.1" id="Icons" xmlns="http://www.w3.org/2000/svg" xmlns:xlink="http://www.w3.org/1999/xlink" x="0px" y="0px"
	 viewBox="0 0 48 48" style="enable-background:new 0 0 48 48;" xml:space="preserve">
<style type="text/css">
	.st0{fill:#FFE500;}
	.st1{fill:#EBCB00;}
	.st2{fill:#FFF48C;}
	.st3{opacity:0.15;fill:#45413C;}
	.st4{fill:none;stroke:#45413C;stroke-linecap:round;stroke-linejoin:round;stroke-miterlimit:10;}
	.st5{fill:#FFAA54;}
	.st6{fill:#FFB0CA;stroke:#45413C;stroke-linecap:round;stroke-linejoin:round;stroke-miterlimit:10;}
	.st7{fill:#FF87AF;stroke:#45413C;stroke-linecap:round;stroke-linejoin:round;stroke-miterlimit:10;}
	.st8{fill:#00B8F0;}
	.st9{fill:#4ACFFF;}
	.st10{fill:#FFFFFF;stroke:#45413C;stroke-linecap:round;stroke-linejoin:round;stroke-miterlimit:10;}
	.st11{fill:#45413C;stroke:#45413C;stroke-linecap:round;stroke-linejoin:round;stroke-miterlimit:10;}
	.st12{fill:#009FD9;}
	.st13{fill:none;stroke:#45413C;stroke-linecap:round;stroke-miterlimit:10;}
	.st14{fill:#FFFFFF;stroke:#45413C;stroke-linejoin:round;stroke-miterlimit:10;}
	.st15{fill:#FF6242;}
	.st16{fill:#FF866E;}
	.st17{fill:#656769;}
	.st18{fill:#87898C;}
	.st19{fill:#4AEFF7;stroke:#45413C;stroke-linecap:round;stroke-linejoin:round;stroke-miterlimit:10;}
	.st20{fill:none;stroke:#48CF3E;stroke-linecap:round;stroke-linejoin:round;stroke-miterlimit:10;}
	.st21{fill:none;stroke:#FF4064;stroke-linecap:round;stroke-linejoin:round;stroke-miterlimit:10;}
	.st22{fill:none;stroke:#FFB700;stroke-linecap:round;stroke-linejoin:round;stroke-miterlimit:10;}
	.st23{fill:none;stroke:#00AED9;stroke-linecap:round;stroke-linejoin:round;stroke-miterlimit:10;}
	.st24{fill:#FFFACF;}
	.st25{fill:#45413C;}
	.st26{fill:#FF866E;stroke:#45413C;stroke-linecap:round;stroke-linejoin:round;stroke-miterlimit:10;}
	.st27{fill:#DABFF5;stroke:#45413C;stroke-linejoin:round;stroke-miterlimit:10;}
	.st28{fill:#EDDBFF;}
	.st29{fill:none;stroke:#45413C;stroke-linejoin:round;stroke-miterlimit:10;}
	.st30{fill:#6DD627;}
	.st31{fill:#46B000;}
	.st32{fill:#C8FFA1;}
	.st33{fill:url(#XMLID_91_);}
	.st34{fill:url(#XMLID_92_);}
	.st35{fill:#F0F0F0;stroke:#45413C;stroke-linecap:round;stroke-linejoin:round;stroke-miterlimit:10;}
	.st36{fill:#EBCB00;stroke:#45413C;stroke-linecap:round;stroke-linejoin:round;stroke-miterlimit:10;}
	.st37{fill:#BDBEC0;stroke:#45413C;stroke-linecap:round;stroke-linejoin:round;stroke-miterlimit:10;}
	.st38{fill:#F0F0F0;}
	.st39{fill:#FFFFFF;}
	.st40{fill:url(#XMLID_93_);}
	.st41{fill:url(#XMLID_94_);}
	.st42{fill:#FFE500;stroke:#45413C;stroke-linecap:round;stroke-linejoin:round;stroke-miterlimit:10;}
	.st43{fill:#E04122;}
	.st44{fill:#8CFFE4;stroke:#45413C;stroke-linecap:round;stroke-linejoin:round;stroke-miterlimit:10;}
	.st45{fill:#E5FFF9;}
	.st46{fill:#E0E0E0;}
	.st47{fill:#9CEB60;}
	.st48{fill:#6DD627;stroke:#45413C;stroke-linecap:round;stroke-linejoin:round;stroke-miterlimit:10;}
	.st49{fill:#E8F4FA;}
	.st50{fill:#F0D5A8;}
	.st51{fill:#DEBB7E;}
	.st52{fill:#B89558;}
	.st53{fill:#00B8F0;stroke:#45413C;stroke-linecap:round;stroke-linejoin:round;stroke-miterlimit:10;}
	.st54{fill:#FFFCE5;}
	.st55{fill:#FF87AF;}
	.st56{fill:#4ACFFF;stroke:#45413C;stroke-linecap:round;stroke-linejoin:round;stroke-miterlimit:10;}
	.st57{fill:#E5F8FF;}
	.st58{fill:none;stroke:#45413C;stroke-miterlimit:10;}
	.st59{fill:none;stroke:#FF6242;stroke-linecap:round;stroke-linejoin:round;stroke-miterlimit:10;}
	.st60{fill:#BDBEC0;}
	.st61{fill:#B89558;stroke:#45413C;stroke-linecap:round;stroke-linejoin:round;stroke-miterlimit:10;}
	.st62{fill:#FF6242;stroke:#45413C;stroke-linecap:round;stroke-linejoin:round;stroke-miterlimit:10;}
	.st63{fill:#525252;stroke:#45413C;stroke-linecap:round;stroke-linejoin:round;stroke-miterlimit:10;}
	.st64{fill:#525252;}
	.st65{fill:#00DBA8;}
	.st66{fill:#00AD85;}
	.st67{fill:#BF8DF2;}
	.st68{fill:#DABFF5;}
	.st69{fill:#00F5BC;}
	.st70{fill:#DAEDF7;}
	.st71{fill:#C0DCEB;}
	.st72{fill:#ADC4D9;}
	.st73{fill:#ADC4D9;stroke:#45413C;stroke-linecap:round;stroke-linejoin:round;stroke-miterlimit:10;}
	.st74{fill:#00DFEB;stroke:#45413C;stroke-linecap:round;stroke-linejoin:round;stroke-miterlimit:10;}
	.st75{fill:#627B8C;stroke:#45413C;stroke-linecap:round;stroke-linejoin:round;stroke-miterlimit:10;}
	.st76{fill:#8CA4B8;}
	.st77{fill:#00DBA8;stroke:#45413C;stroke-linecap:round;stroke-linejoin:round;stroke-miterlimit:10;}
	.st78{fill:#FF8A14;}
	.st79{fill:#BF8256;}
	.st80{fill:#DEA47A;}
	.st81{fill:#915E3A;}
	.st82{fill:#FFA694;}
	.st83{fill:#E5FEFF;stroke:#45413C;stroke-linecap:round;stroke-linejoin:round;stroke-miterlimit:10;}
	.st84{fill:#803EC2;stroke:#45413C;stroke-linecap:round;stroke-linejoin:round;stroke-miterlimit:10;}
	.st85{fill:#9F5AE5;}
	.st86{fill:#803EC2;}
</style>
<g id="XMLID_429_">
	<ellipse id="XMLID_48_" class="st3" cx="24" cy="45.4" rx="11.7" ry="1.6"/>
	<g>
		<circle id="XMLID_47_" class="st0" cx="24" cy="27.5" r="13.5"/>
		<path id="XMLID_44_" class="st1" d="M24,14.1c-7.4,0-13.5,6-13.5,13.5S16.6,41,24,41c7.4,0,13.5-6,13.5-13.5S31.4,14.1,24,14.1z
			 M24,39c-6.8,0-12.3-5.5-12.3-12.3c0-6.8,5.5-12.3,12.3-12.3c6.8,0,12.3,5.5,12.3,12.3C36.3,33.5,30.8,39,24,39z"/>
		<circle id="XMLID_43_" class="st4" cx="24" cy="27.5" r="13.5"/>
		<circle id="XMLID_42_" class="st6" cx="24" cy="34.1" r="5.4"/>
		<path id="XMLID_41_" class="st26" d="M24,34.4c-1.9,0-3.6,1-4.6,2.5c1,1.5,2.6,2.5,4.6,2.5s3.6-1,4.6-2.5
			C27.6,35.4,25.9,34.4,24,34.4z"/>
		<ellipse id="XMLID_40_" class="st5" cx="33.1" cy="31.6" rx="1.7" ry="1"/>
		<ellipse id="XMLID_39_" class="st5" cx="14.9" cy="31.6" rx="1.7" ry="1"/>
		<path id="XMLID_38_" class="st19" d="M25.7,39.6c0-0.7,0.4-1.3,1-1.6c0.2-0.1,0.5-0.3,0.6-0.5l0.6-0.7c0.4-0.5,1.2-0.2,1.2,0.4V39
			c0,0.7-0.5,1.2-1.2,1.2c-0.3,0-0.5,0.2-0.5,0.5v4.9c0,0.5-0.4,0.8-0.8,0.8s-0.8-0.4-0.8-0.8V39.6z"/>
		<path id="XMLID_37_" class="st4" d="M33.4,27.5c0,0.7-0.5,1.2-1.2,1.2c-0.7,0-1.2-0.5-1.2-1.2"/>
		<path id="XMLID_36_" class="st4" d="M16.9,27.5c0,0.7-0.5,1.2-1.2,1.2s-1.2-0.5-1.2-1.2"/>
	</g>
	<g>
		<g id="XMLID_34_">
			<path id="XMLID_35_" class="st27" d="M25.6,17.7l-5.9-1.1c-0.4-0.1-0.7-0.3-0.7-0.7c-0.1-0.4,0.1-0.7,0.4-1l5.4-4l-3.8-0.7
				c-0.5-0.1-0.8-0.6-0.7-1.1c0.1-0.5,0.6-0.8,1.1-0.7l5.9,1.1c0.4,0.1,0.7,0.3,0.7,0.7c0.1,0.4-0.1,0.7-0.4,1l-5.4,4l3.8,0.7
				c0.5,0.1,0.8,0.6,0.7,1.1C26.6,17.5,26.1,17.8,25.6,17.7z"/>
		</g>
		<g id="XMLID_32_">
			<path id="XMLID_33_" class="st27" d="M14.8,23.7l-4.8,1.9c-0.3,0.1-0.6,0.1-0.9-0.2c-0.2-0.2-0.3-0.6-0.2-0.9l2.1-5.4l-3.1,1.3
				c-0.4,0.2-0.9,0-1-0.4c-0.2-0.4,0-0.9,0.4-1l4.8-1.9c0.3-0.1,0.6-0.1,0.9,0.2c0.2,0.2,0.3,0.6,0.2,0.9L11,23.4l3.1-1.3
				c0.4-0.2,0.9,0,1,0.4C15.4,23,15.2,23.5,14.8,23.7z"/>
		</g>
		<g id="XMLID_30_">
			<path id="XMLID_31_" class="st27" d="M17.6,14.2L6.3,16.4c-0.6,0.1-1.2-0.1-1.5-0.6c-0.3-0.5-0.3-1.1,0-1.6L11.9,4L4.2,5.6
				C3.4,5.7,2.6,5.2,2.5,4.4C2.3,3.7,2.8,2.9,3.6,2.7l11.3-2.2c0.6-0.1,1.2,0.1,1.5,0.6c0.3,0.5,0.3,1.1,0,1.6L9.3,12.9l7.8-1.5
				c0.8-0.2,1.5,0.4,1.7,1.1C18.9,13.3,18.4,14,17.6,14.2z"/>
		</g>
		<g id="XMLID_28_">
			<path id="XMLID_29_" class="st28" d="M4.2,4.3l11.3-2.2c0.4-0.1,0.8,0,1.1,0.2c0.1-0.4,0.1-0.8-0.2-1.2c-0.3-0.5-0.9-0.7-1.5-0.6
				L3.6,2.7C2.8,2.9,2.3,3.7,2.5,4.4c0.1,0.4,0.3,0.7,0.6,0.9C3.2,4.8,3.6,4.4,4.2,4.3z"/>
		</g>
		<g id="XMLID_26_">
			<path id="XMLID_27_" class="st29" d="M17.6,14.2L6.3,16.4c-0.6,0.1-1.2-0.1-1.5-0.6c-0.3-0.5-0.3-1.1,0-1.6L11.9,4L4.2,5.6
				C3.4,5.7,2.6,5.2,2.5,4.4C2.3,3.7,2.8,2.9,3.6,2.7l11.3-2.2c0.6-0.1,1.2,0.1,1.5,0.6c0.3,0.5,0.3,1.1,0,1.6L9.3,12.9l7.8-1.5
				c0.8-0.2,1.5,0.4,1.7,1.1C18.9,13.3,18.4,14,17.6,14.2z"/>
		</g>
	</g>
</g>
</svg>
