<svg xmlns="http://www.w3.org/2000/svg" width="104" height="30" viewBox="0 0 104 30">
    <g fill="none" fill-rule="evenodd">
        <path fill="#DE4E2D" d="M79.912 3.91l-.662-.885H78.2l.734-.761-.13-1.119-1.074-.143-.743.77V.695L76.13 0l-.858.685V1.77l-.734-.759-1.083.134-.138 1.11.743.77h-1.04l-.672.886.662.885h1.05l-.734.761.13 1.119 1.074.143.742-.769v1.075l.858.696.857-.685V6.05l.735.76 1.082-.134.138-1.11-.743-.77h1.04z"/>
        <path fill="#1A1919" d="M13.79 10.192c-1.667 0-3.16.787-4.15 2.019-.992-1.232-2.484-2.019-4.152-2.019-2.976 0-5.396 2.503-5.396 5.58v14.163h2.49V15.771c0-1.656 1.304-3.004 2.906-3.004s2.906 1.348 2.906 3.005v14.163h2.49V15.771c0-1.656 1.304-3.004 2.906-3.004s2.906 1.348 2.906 3.005v14.163h2.49V15.771c0-3.076-2.42-5.579-5.396-5.579M29.979 24.356c0 1.656-1.303 3.004-2.906 3.004-1.602 0-2.906-1.348-2.906-3.004v-8.584c0-1.657 1.304-3.005 2.906-3.005 1.603 0 2.906 1.348 2.906 3.005v8.584zm-2.906-14.164c-2.975 0-5.396 2.503-5.396 5.58v8.584c0 3.076 2.421 5.579 5.396 5.579 2.976 0 5.396-2.503 5.396-5.58v-8.583c0-3.077-2.42-5.58-5.396-5.58zM56.545 24.356c0 1.656-1.303 3.004-2.905 3.004-1.602 0-2.906-1.348-2.906-3.004 0-1.295.889-1.865 3.072-2.947a155.982 155.982 0 0 0 .807-.404c.627-.315 1.302-.655 1.932-1.069v4.42zM53.64 10.192c-2.942 0-5.339 2.446-5.394 5.473h-.003v1.394h2.49v-1.287c0-1.657 1.305-3.005 2.907-3.005s2.905 1.348 2.905 3.005c0 1.266-.92 1.861-3.021 2.917l-.425.215h-.001l-.368.183c-2.103 1.042-4.487 2.224-4.487 5.269 0 3.076 2.421 5.579 5.397 5.579 2.975 0 5.396-2.503 5.396-5.58v-8.583c0-3.077-2.42-5.58-5.396-5.58zM66.923 10.192c-2.976 0-5.396 2.503-5.396 5.58v14.163h2.49V15.771c0-1.656 1.304-3.004 2.906-3.004s2.906 1.348 2.906 3.005v14.163h2.49V15.771c0-3.076-2.421-5.579-5.396-5.579M85.187 10.192c-2.975 0-5.396 2.503-5.396 5.58 0 3.01 2.452 4.243 4.423 5.234l.423.213c.001 0 .003 0 .004.002l.005.002.375.186c2.183 1.082 3.072 1.652 3.072 2.947 0 1.656-1.304 3.004-2.906 3.004s-2.906-1.348-2.906-3.004V22.95h-2.49v1.404c0 3.077 2.42 5.58 5.396 5.58 2.975 0 5.396-2.503 5.396-5.58 0-3.044-2.383-4.226-4.486-5.268l-.368-.183a54.73 54.73 0 0 0-.426-.215c-2.101-1.055-3.022-1.65-3.022-2.917 0-1.657 1.304-3.005 2.906-3.005s2.906 1.348 2.906 3.005v1.287h2.49v-1.393h-.002c-.055-3.028-2.453-5.474-5.394-5.474M101.376 24.356c0 1.656-1.303 3.004-2.906 3.004-1.602 0-2.905-1.348-2.905-3.004 0-1.295.889-1.865 3.072-2.947l.375-.186.004-.003.005-.001.422-.214c.627-.315 1.303-.655 1.933-1.069v4.42zM98.47 10.192c-2.94 0-5.338 2.446-5.393 5.473h-.003v1.394h2.49v-1.287c0-1.657 1.304-3.005 2.906-3.005 1.603 0 2.906 1.348 2.906 3.005 0 1.266-.92 1.861-3.022 2.917l-.425.215-.369.183c-2.102 1.042-4.486 2.224-4.486 5.269 0 3.076 2.421 5.579 5.396 5.579 2.976 0 5.397-2.503 5.397-5.58v-8.583c0-3.077-2.421-5.58-5.397-5.58zM74.81 10.192V29.935h2.49V10.192zM43.262 20.063v4.293c0 1.656-1.303 3.004-2.906 3.004-1.602 0-2.905-1.348-2.905-3.004v-8.584c0-1.657 1.303-3.005 2.905-3.005 1.603 0 2.906 1.348 2.906 3.005v4.291zm0-15.021v6.032a5.237 5.237 0 0 0-2.906-.882c-2.975 0-5.396 2.503-5.396 5.58v8.584c0 3.076 2.421 5.58 5.396 5.58 2.976 0 5.397-2.504 5.397-5.58V5.042h-2.49z"/>
    </g>
</svg>
